<svg width="20" height="20" viewBox="0 0 20 20" fill="none" xmlns="http://www.w3.org/2000/svg">
<path d="M1.24989 18.1252C1.16169 18.1257 1.07438 18.1076 0.993696 18.072C0.91301 18.0364 0.840777 17.9841 0.781743 17.9185C0.72271 17.853 0.678213 17.7757 0.651179 17.6918C0.624144 17.6078 0.615185 17.5191 0.624888 17.4314L1.10614 13.0564C1.12327 12.9166 1.18714 12.7867 1.28739 12.6877L11.5124 2.46269C11.6982 2.27655 11.9188 2.12887 12.1617 2.02811C12.4046 1.92735 12.665 1.87549 12.928 1.87549C13.191 1.87549 13.4514 1.92735 13.6943 2.02811C13.9372 2.12887 14.1579 2.27655 14.3436 2.46269L16.2874 4.40644C16.4735 4.59221 16.6212 4.81286 16.722 5.05577C16.8227 5.29868 16.8746 5.55908 16.8746 5.82206C16.8746 6.08504 16.8227 6.34544 16.722 6.58835C16.6212 6.83126 16.4735 7.05192 16.2874 7.23769L6.06864 17.4564C5.96966 17.5567 5.83972 17.6206 5.69989 17.6377L1.32489 18.1189L1.24989 18.1252ZM2.33114 13.4064L1.95614 16.7939L5.34364 16.4189L15.4061 6.35644C15.4761 6.28676 15.5315 6.20396 15.5694 6.1128C15.6072 6.02164 15.6267 5.9239 15.6267 5.82519C15.6267 5.72648 15.6072 5.62874 15.5694 5.53757C15.5315 5.44641 15.4761 5.36362 15.4061 5.29394L13.4561 3.34394C13.3865 3.27402 13.3037 3.21854 13.2125 3.18069C13.1213 3.14283 13.0236 3.12335 12.9249 3.12335C12.8262 3.12335 12.7284 3.14283 12.6373 3.18069C12.5461 3.21854 12.4633 3.27402 12.3936 3.34394L2.33114 13.4064Z" fill="#0884FF"/>
<path d="M14.375 8.88166C14.2928 8.88213 14.2112 8.86637 14.1351 8.83527C14.0589 8.80416 13.9897 8.75833 13.9313 8.70041L10.05 4.80666C9.99174 4.74838 9.94552 4.6792 9.91398 4.60306C9.88244 4.52693 9.86621 4.44532 9.86621 4.36291C9.86621 4.2805 9.88244 4.19889 9.91398 4.12275C9.94552 4.04661 9.99174 3.97743 10.05 3.91916C10.1083 3.86088 10.1775 3.81466 10.2536 3.78312C10.3298 3.75158 10.4114 3.73535 10.4938 3.73535C10.5762 3.73535 10.6578 3.75158 10.7339 3.78312C10.8101 3.81466 10.8792 3.86088 10.9375 3.91916L14.8313 7.81291C14.8898 7.87101 14.9363 7.94014 14.9681 8.0163C14.9998 8.09246 15.0161 8.17415 15.0161 8.25666C15.0161 8.33917 14.9998 8.42086 14.9681 8.49702C14.9363 8.57318 14.8898 8.64231 14.8313 8.70041C14.7714 8.75985 14.7001 8.80656 14.6217 8.83771C14.5433 8.86886 14.4594 8.88381 14.375 8.88166Z" fill="#0884FF"/>
<path d="M10.0533 7.81488L5.1875 12.6807L6.07138 13.5645L10.9372 8.69877L10.0533 7.81488Z" fill="#0884FF"/>
</svg>
