<svg width="41" height="41" viewBox="0 0 41 41" fill="none" xmlns="http://www.w3.org/2000/svg">
<path d="M18.75 22.65H22.15V9.8H18.75V22.65ZM20.3 30.6C20.8333 30.6 21.2833 30.4167 21.65 30.05C22.0167 29.6833 22.2 29.2333 22.2 28.7C22.2 28.1667 22.025 27.7083 21.675 27.325C21.325 26.9417 20.8667 26.75 20.3 26.75C19.7667 26.75 19.3167 26.9417 18.95 27.325C18.5833 27.7083 18.4 28.1667 18.4 28.7C18.4 29.2333 18.575 29.6833 18.925 30.05C19.275 30.4167 19.7333 30.6 20.3 30.6ZM20.3 40.6C17.4333 40.6 14.7583 40.0833 12.275 39.05C9.79167 38.0167 7.64167 36.5917 5.825 34.775C4.00833 32.9583 2.58333 30.8083 1.55 28.325C0.516667 25.8417 0 23.1667 0 20.3C0 17.4667 0.516667 14.8083 1.55 12.325C2.58333 9.84167 4.00833 7.69167 5.825 5.875C7.64167 4.05833 9.79167 2.625 12.275 1.575C14.7583 0.525 17.4333 0 20.3 0C23.1333 0 25.7917 0.525 28.275 1.575C30.7583 2.625 32.9083 4.05833 34.725 5.875C36.5417 7.69167 37.975 9.83333 39.025 12.3C40.075 14.7667 40.6 17.4333 40.6 20.3C40.6 23.1667 40.075 25.8417 39.025 28.325C37.975 30.8083 36.5417 32.9583 34.725 34.775C32.9083 36.5917 30.7583 38.0167 28.275 39.05C25.7917 40.0833 23.1333 40.6 20.3 40.6ZM20.3 37.2C24.9333 37.2 28.9083 35.55 32.225 32.25C35.5417 28.95 37.2 24.9667 37.2 20.3C37.2 15.6667 35.5417 11.6917 32.225 8.375C28.9083 5.05833 24.9333 3.4 20.3 3.4C15.6667 3.4 11.6917 5.05833 8.375 8.375C5.05833 11.6917 3.4 15.6667 3.4 20.3C3.4 24.9667 5.05833 28.95 8.375 32.25C11.6917 35.55 15.6667 37.2 20.3 37.2Z" fill="url(#paint0_linear_271_113)"/>
<defs>
<linearGradient id="paint0_linear_271_113" x1="20.3" y1="0" x2="20.3" y2="40.6" gradientUnits="userSpaceOnUse">
<stop stop-color="#F8B914"/>
<stop offset="1" stop-color="#EA3822"/>
</linearGradient>
</defs>
</svg>
