<svg width="31" height="30" viewBox="0 0 31 30" fill="none" xmlns="http://www.w3.org/2000/svg">
<path d="M6.07847 3.25C6.1815 4.69625 6.43906 6.11 6.85116 7.45875L4.79066 9.40875C4.08666 7.45875 3.64022 5.395 3.48568 3.25H6.07847ZM23.0089 22.7825C24.4684 23.1725 25.9623 23.4162 27.4733 23.5137V25.935C25.2068 25.7887 23.0261 25.3662 20.9484 24.7162L23.0089 22.7825ZM7.72687 0H1.71708C0.772687 0 0 0.73125 0 1.625C0 16.8838 13.067 29.25 29.1904 29.25C30.1348 29.25 30.9075 28.5187 30.9075 27.625V21.9538C30.9075 21.06 30.1348 20.3288 29.1904 20.3288C27.0612 20.3288 24.9836 20.0037 23.0604 19.4025C22.8887 19.3375 22.6998 19.3213 22.5281 19.3213C22.0817 19.3213 21.6524 19.4838 21.309 19.7925L17.5314 23.3675C12.6721 21.0112 8.68844 17.2575 6.21584 12.6587L9.99342 9.08375C10.4742 8.62875 10.6116 7.995 10.4227 7.42625C9.78737 5.60625 9.44396 3.65625 9.44396 1.625C9.44396 0.73125 8.67127 0 7.72687 0Z" fill="#7CB5EC"/>
</svg>
