<svg width="32" height="36" viewBox="0 0 32 36" fill="none" xmlns="http://www.w3.org/2000/svg">
<path d="M28.53 6H3.17C1.4265 6 0 7.35 0 9V27C0 28.65 1.4265 30 3.17 30H28.53C30.2735 30 31.7 28.65 31.7 27V9C31.7 7.35 30.2735 6 28.53 6ZM28.53 27H3.17V9H28.53V27ZM3.17 0H28.53V3H3.17V0ZM3.17 33H28.53V36H3.17V33ZM15.85 18C18.0373 18 19.8125 16.32 19.8125 14.25C19.8125 12.18 18.0373 10.5 15.85 10.5C13.6627 10.5 11.8875 12.18 11.8875 14.25C11.8875 16.32 13.6627 18 15.85 18ZM15.85 12.75C16.7218 12.75 17.435 13.425 17.435 14.25C17.435 15.075 16.7218 15.75 15.85 15.75C14.9783 15.75 14.265 15.075 14.265 14.25C14.265 13.425 14.9783 12.75 15.85 12.75ZM23.775 23.985C23.775 20.85 18.5287 19.5 15.85 19.5C13.1714 19.5 7.925 20.85 7.925 23.985V25.5H23.775V23.985ZM10.7939 23.25C11.7607 22.47 14.0114 21.75 15.85 21.75C17.7045 21.75 19.9552 22.47 20.922 23.25H10.7939Z" fill="#FE8627"/>
</svg>
